<?xml version="1.0" encoding="UTF-8"?>
<svg version="1.1" xmlns="http://www.w3.org/2000/svg" width="1024" height="1024">
<path d="M0 0 C0.4431958 0.85835449 0.8863916 1.71670898 1.34301758 2.60107422 C1.85437256 3.57165771 2.36572754 4.54224121 2.89257812 5.54223633 C3.41891846 6.56969971 3.94525879 7.59716309 4.48754883 8.65576172 C5.6208072 10.80663985 6.75625805 12.95636411 7.89379883 15.10498047 C8.45969727 16.17925293 9.0255957 17.25352539 9.60864258 18.36035156 C12.14535441 23.11522163 14.79533785 27.80007033 17.48754883 32.46826172 C17.94476318 33.27215332 18.40197754 34.07604492 18.87304688 34.90429688 C19.50786987 36.00136963 19.50786987 36.00136963 20.15551758 37.12060547 C20.52314209 37.75861084 20.8907666 38.39661621 21.26953125 39.05395508 C22.24486518 40.70216218 22.24486518 40.70216218 24.30004883 41.53076172 C24.49147461 42.58263672 24.49147461 42.58263672 24.68676758 43.65576172 C25.47781391 47.36410629 27.21957908 50.29488112 29.11254883 53.53076172 C29.49983154 54.20703613 29.88711426 54.88331055 30.28613281 55.58007812 C31.61690904 57.90119339 32.95788485 60.21621364 34.30004883 62.53076172 C35.94374059 65.37159895 37.58543522 68.21353344 39.22265625 71.05810547 C40.30690271 72.94088807 41.39553868 74.82115038 42.48876953 76.69873047 C42.98465576 77.55853516 43.48054199 78.41833984 43.99145508 79.30419922 C44.43690674 80.0716748 44.8823584 80.83915039 45.34130859 81.62988281 C46.30004883 83.53076172 46.30004883 83.53076172 46.30004883 85.53076172 C46.96004883 85.86076172 47.62004883 86.19076172 48.30004883 86.53076172 C49.4658829 88.51665756 50.55470664 90.54779813 51.61254883 92.59326172 C52.32769325 93.9609733 53.04391691 95.3281209 53.76098633 96.69482422 C54.16027344 97.45827148 54.55956055 98.22171875 54.97094727 99.00830078 C57.52148182 103.84888179 60.13130278 108.6575155 62.73754883 113.46826172 C63.29313477 114.49443604 63.8487207 115.52061035 64.42114258 116.57788086 C68.96115753 124.94487856 73.59160578 133.25752846 78.30004883 141.53076172 C78.96004883 141.53076172 79.62004883 141.53076172 80.30004883 141.53076172 C80.4639209 142.60898193 80.4639209 142.60898193 80.63110352 143.70898438 C81.35450635 146.76047707 82.45248999 148.95823524 84.00317383 151.67919922 C84.56560791 152.6742749 85.12804199 153.66935059 85.70751953 154.69458008 C86.3155542 155.75427002 86.92358887 156.81395996 87.55004883 157.90576172 C88.17032959 158.99961182 88.79061035 160.09346191 89.4296875 161.22045898 C90.72723389 163.50762879 92.0276602 165.79316693 93.33081055 168.07714844 C95.86032934 172.5133712 98.37221906 176.95943526 100.88305664 181.40625 C102.02032102 183.41974095 103.15895399 185.4324596 104.29907227 187.44433594 C104.81115234 188.34812988 105.32323242 189.25192383 105.85083008 190.18310547 C106.52625854 191.37407837 106.52625854 191.37407837 107.21533203 192.58911133 C107.94023209 193.88668732 108.63534084 195.20134574 109.30004883 196.53076172 C110.29004883 196.86076172 111.28004883 197.19076172 112.30004883 197.53076172 C112.36192383 198.33513672 112.42379883 199.13951172 112.48754883 199.96826172 C113.72907896 205.41189382 116.32798356 210.55869645 120.30004883 214.53076172 C121.59237755 216.9960825 122.83528714 219.46525559 124.05004883 221.96826172 C127.30399808 228.5836301 130.70049333 235.0951928 134.30004883 241.53076172 C134.96004883 241.53076172 135.62004883 241.53076172 136.30004883 241.53076172 C136.42766602 242.53042969 136.42766602 242.53042969 136.55786133 243.55029297 C137.53090107 247.45781571 139.26647322 250.69184335 141.17504883 254.21826172 C141.52696289 254.894375 141.87887695 255.57048828 142.24145508 256.26708984 C144.00582767 259.56299031 145.13887271 261.42331097 148.30004883 263.53076172 C148.30004883 264.52076172 148.30004883 265.51076172 148.30004883 266.53076172 C150.14193495 268.58346635 150.14193495 268.58346635 152.30004883 269.53076172 C152.43540039 270.40087891 152.57075195 271.27099609 152.71020508 272.16748047 C153.39844112 276.09179329 154.82218339 278.85896908 156.73754883 282.34326172 C157.35500977 283.48408203 157.9724707 284.62490234 158.60864258 285.80029297 C160.01750114 288.60817782 160.01750114 288.60817782 162.30004883 289.53076172 C162.56124512 288.84159668 162.82244141 288.15243164 163.09155273 287.44238281 C164.44650594 284.17790364 166.01065695 281.08365041 167.63598633 277.94482422 C167.95661041 277.32481537 168.2772345 276.70480652 168.60757446 276.06600952 C169.28390496 274.75941484 169.96136542 273.45340451 170.63989258 272.14794922 C171.66751469 270.17026138 172.69109086 268.19052059 173.71411133 266.21044922 C178.92856073 256.14643704 178.92856073 256.14643704 181.48999023 251.74316406 C183.34075198 248.79019368 183.34075198 248.79019368 183.86254883 246.28076172 C184.30004883 244.53076172 184.30004883 244.53076172 185.64624023 243.24462891 C187.68320934 241.13368661 188.83175647 238.95517711 190.19848633 236.35888672 C190.75383057 235.3132959 191.3091748 234.26770508 191.88134766 233.19042969 C192.47326904 232.06523926 193.06519043 230.94004883 193.67504883 229.78076172 C194.93483569 227.41251375 196.19600239 225.04508458 197.46020508 222.67919922 C197.78025009 222.07959381 198.1002951 221.4799884 198.43003845 220.86221313 C201.57058825 214.99411843 204.82433241 209.19231789 208.11254883 203.40576172 C208.91776978 201.9884375 208.91776978 201.9884375 209.73925781 200.54248047 C210.77544666 198.7208065 211.81228547 196.89950205 212.84985352 195.07861328 C216.36024731 188.91119415 219.83589588 182.7242473 223.30004883 176.53076172 C223.88657227 175.48275391 224.4730957 174.43474609 225.07739258 173.35498047 C227.16829496 169.57704193 229.14764869 165.89906206 230.80004883 161.90576172 C232.45781715 158.17578299 234.5424723 155.06179835 236.89770508 151.74169922 C238.94469328 148.5144142 240.09619194 145.14233237 241.30004883 141.53076172 C241.63004883 141.86076172 241.96004883 142.19076172 242.30004883 142.53076172 C242.79891602 141.57041016 243.2977832 140.61005859 243.81176758 139.62060547 C248.8613777 129.96408091 254.15129487 120.46723918 259.55493164 111.00463867 C263.44481707 104.15154888 267.04860214 97.22175125 270.42114258 90.10107422 C271.79604705 87.33887876 273.39956884 84.83561053 275.13989258 82.28857422 C278.63233747 77.15502247 281.5216278 71.76296154 284.42504883 66.28076172 C289.33016663 57.10830571 294.37697154 48.03572401 299.60522461 39.04345703 C300.07686035 38.22844727 300.54849609 37.4134375 301.03442383 36.57373047 C301.44917969 35.86240967 301.86393555 35.15108887 302.29125977 34.41821289 C303.43568804 32.40432395 303.43568804 32.40432395 304.30004883 29.53076172 C304.96004883 29.53076172 305.62004883 29.53076172 306.30004883 29.53076172 C306.56817383 28.27263672 306.83629883 27.01451172 307.11254883 25.71826172 C307.9291065 21.88672189 307.9291065 21.88672189 309.65405273 20.23144531 C311.70895011 18.10827487 312.93871745 15.86336251 314.36645508 13.27685547 C314.93428711 12.25785156 315.50211914 11.23884766 316.0871582 10.18896484 C316.96597656 8.5947168 316.96597656 8.5947168 317.86254883 6.96826172 C319.02751795 4.86113177 320.19534994 2.75558131 321.36645508 0.65185547 C322.13904663 -0.74915405 322.13904663 -0.74915405 322.92724609 -2.1784668 C324.30004883 -4.46923828 324.30004883 -4.46923828 326.30004883 -6.46923828 C328.25567532 -6.73374462 328.25567532 -6.73374462 330.69639587 -6.75444031 C331.62036667 -6.76704895 332.54433746 -6.77965759 333.49630737 -6.79264832 C334.51298492 -6.79637955 335.52966248 -6.80011078 336.57714844 -6.80395508 C337.64551437 -6.81560699 338.71388031 -6.82725891 339.81462097 -6.83926392 C343.36052866 -6.87536852 346.90636741 -6.89715058 350.45239258 -6.91845703 C352.90858073 -6.93969765 355.36476269 -6.9616642 357.82093811 -6.98432922 C362.97499886 -7.02979643 368.12905241 -7.06857045 373.28320312 -7.10229492 C379.89912302 -7.14581603 386.51484544 -7.20253804 393.13062191 -7.26384258 C398.20480892 -7.30997477 403.27902713 -7.35079008 408.35327339 -7.38981056 C410.79300514 -7.40889766 413.23272725 -7.42926038 415.67243767 -7.45090294 C419.07946397 -7.47999629 422.48646648 -7.50234454 425.89355469 -7.52270508 C427.41553467 -7.53741096 427.41553467 -7.53741096 428.96826172 -7.55241394 C430.35844765 -7.5586377 430.35844765 -7.5586377 431.77671814 -7.56498718 C432.58253295 -7.57068568 433.38834776 -7.57638418 434.2185812 -7.58225536 C436.30004883 -7.46923828 436.30004883 -7.46923828 439.30004883 -6.46923828 C438.80600944 -1.38587482 437.74378219 2.13720948 435.15942383 6.53076172 C434.18114624 8.21540527 434.18114624 8.21540527 433.18310547 9.93408203 C432.4721758 11.13302816 431.76115481 12.33192015 431.05004883 13.53076172 C430.32150562 14.77840603 429.59422553 16.02678872 428.86816406 17.27587891 C427.39316943 19.8119226 425.9134563 22.34511638 424.43041992 24.87646484 C421.35042283 30.14538634 418.35488458 35.46170554 415.36254883 40.78076172 C414.31844537 42.63372063 413.27417962 44.48658809 412.22973633 46.33935547 C411.73957031 47.20931152 411.2494043 48.07926758 410.74438477 48.97558594 C409.33536672 51.46828082 407.91696424 53.955383 406.49536133 56.44091797 C406.06860107 57.19018555 405.64184082 57.93945312 405.20214844 58.71142578 C404.41727988 60.08900814 403.6292471 61.46479466 402.83740234 62.83837891 C400.91712805 65.98491469 400.91712805 65.98491469 400.30004883 69.53076172 C399.30384385 70.5345424 398.30315784 71.53388043 397.30004883 72.53076172 C396.44236443 73.92224609 395.6378028 75.34718976 394.87426758 76.79248047 C394.41439453 77.65220459 393.95452148 78.51192871 393.48071289 79.39770508 C392.98796875 80.32848877 392.49522461 81.25927246 391.98754883 82.21826172 C387.50626369 90.57031594 382.86133497 98.80198408 378.05004883 106.96826172 C373.59391753 114.54470738 369.27980914 122.15322306 365.19848633 129.93701172 C359.81651779 140.19054082 354.02714544 150.23588692 348.36694336 160.3371582 C345.34297681 165.73409266 342.32124204 171.13227439 339.30004883 176.53076172 C338.97357361 177.11369995 338.64709839 177.69663818 338.31072998 178.29724121 C336.29486186 181.89669973 334.28186231 185.49773666 332.27255249 189.1008606 C331.33340547 190.78349778 330.39160467 192.46465295 329.44970703 194.14575195 C326.56836058 199.31822269 323.78679911 204.5094516 321.17504883 209.82373047 C319.20034762 213.82386632 317.08595941 217.58838884 314.66723633 221.33105469 C311.8609094 225.84623426 309.37579652 230.55264213 306.82629395 235.21621704 C305.06743548 238.43324177 303.30133811 241.64628114 301.53442383 244.85888672 C301.17898499 245.50529617 300.82354614 246.15170563 300.45733643 246.81770325 C296.5254586 253.95633588 292.50691645 261.04563211 288.4621582 268.12084961 C285.57652971 273.188191 282.85865472 278.29031434 280.30004883 283.53076172 C279.23196962 285.66692014 277.96292113 287.49909985 276.60473633 289.46435547 C273.1343952 294.64082665 270.2633418 300.05164895 267.42504883 305.59326172 C266.9274707 306.55425781 266.42989258 307.51525391 265.91723633 308.50537109 C264.70679215 310.84478724 263.50117248 313.18655056 262.30004883 315.53076172 C266.29934929 316.85960591 270.35666261 316.65603357 274.51708984 316.62841797 C275.34593185 316.6269577 276.17477386 316.62549744 277.0287323 316.62399292 C278.83472346 316.62018461 280.64071087 316.61406562 282.4466877 316.60592651 C285.3530514 316.5930441 288.25936862 316.58661176 291.16575623 316.58178711 C298.42150209 316.56846994 305.67720686 316.5449056 312.93292236 316.52038574 C328.0555523 316.46992327 343.17747525 316.45299339 358.30004883 316.53076172 C359.32959435 316.53593811 360.35913986 316.5411145 361.41988373 316.54644775 C367.51891069 316.58143582 373.6168203 316.64288214 379.71519279 316.73928833 C381.60805831 316.76671603 383.50103189 316.78755671 385.39404488 316.80148315 C387.99875241 316.82248312 390.60182652 316.86848718 393.20605469 316.92138672 C394.35508805 316.92323723 394.35508805 316.92323723 395.52733421 316.92512512 C398.94443544 317.0205132 400.95264463 317.27652786 403.74342346 319.31884766 C406.81050075 323.67706482 406.45780936 328.05075456 406.47705078 333.23339844 C406.48690758 334.39024643 406.48690758 334.39024643 406.4969635 335.57046509 C406.51663935 338.11712753 406.52834484 340.66373123 406.53833008 343.21044922 C406.54240561 344.08189701 406.54648113 344.9533448 406.55068016 345.8512001 C406.57151415 350.46167003 406.58582875 355.07211041 406.59521484 359.68261719 C406.60628812 364.43965797 406.64070609 369.19623214 406.68038654 373.95310783 C406.70654562 377.61631126 406.71490592 381.27940319 406.71849632 384.9426918 C406.72336224 386.69614955 406.73497641 388.44960231 406.75353432 390.2029686 C406.77791671 392.65880031 406.7769631 395.11341992 406.77001953 397.56933594 C406.78282959 398.28953918 406.79563965 399.00974243 406.80883789 399.75177002 C406.7741694 403.12484555 406.21741491 405.74859515 405.02067566 408.90335083 C397.49476099 416.17140756 382.81236465 413.7976477 372.88916016 413.74194336 C371.16489755 413.73973782 369.44063358 413.73843576 367.71636963 413.73796082 C364.02839658 413.73504582 360.34051359 413.72586298 356.65256691 413.71165657 C350.82507579 413.68927343 344.99761737 413.68128221 339.17008972 413.67515564 C329.96350354 413.66381267 320.75696683 413.64310599 311.55040807 413.61825794 C295.02924631 413.57375963 278.50806623 413.5407803 261.98686045 413.51801389 C256.18828005 413.50959065 250.38974761 413.49555236 244.59119093 413.47704136 C240.9987603 413.46643866 237.40633014 413.45982973 233.81388855 413.4542408 C232.14207186 413.45075581 230.47025782 413.4455262 228.79845238 413.43847275 C226.52669376 413.4290942 224.2550059 413.42575427 221.98323059 413.42396545 C220.07222675 413.41868631 220.07222675 413.41868631 218.12261677 413.41330051 C215.39748113 413.20763126 215.39748113 413.20763126 214.30004883 414.53076172 C214.20579288 416.67819721 214.18262235 418.82877198 214.18652344 420.97827148 C214.1863044 421.98798508 214.1863044 421.98798508 214.18608093 423.01809692 C214.18678004 425.25281956 214.19457231 427.48745981 214.20239258 429.72216797 C214.20425677 431.26773534 214.20568066 432.81330329 214.2066803 434.35887146 C214.21050543 438.43433248 214.22033566 442.50975809 214.23138428 446.58520508 C214.24159851 450.74088054 214.24617794 454.89656171 214.2512207 459.05224609 C214.26195794 467.21176759 214.27903429 475.37126025 214.30004883 483.53076172 C215.24795855 483.52707455 216.19586826 483.52338737 217.17250252 483.51958847 C240.23236081 483.43080828 263.29219695 483.36506728 286.35219002 483.32351303 C297.5038167 483.30288381 308.65533052 483.27475623 319.80688477 483.22900391 C329.52606432 483.18914729 339.24516214 483.16333153 348.96442115 483.15440774 C354.11119128 483.14919103 359.25772755 483.1369222 364.40442276 483.10784149 C369.24874751 483.08069106 374.09274208 483.07231602 378.9371357 483.07833099 C380.71489697 483.07723059 382.49266929 483.06927449 384.27036476 483.05393982 C386.69905025 483.03401732 389.12649161 483.03883017 391.5552063 483.04974365 C392.25755468 483.03809229 392.95990307 483.02644092 393.68353474 483.01443648 C398.64574023 483.07464596 401.47286487 484.43051536 405.30004883 487.53076172 C406.95841362 490.96181091 406.44779711 495.10054132 406.4453125 498.86621094 C406.44867111 499.59842865 406.45202972 500.33064636 406.45549011 501.08505249 C406.46497675 503.50186873 406.46694209 505.91861552 406.46801758 508.33544922 C406.4712318 510.01929757 406.47459599 511.70314564 406.47810364 513.38699341 C406.48408922 516.91587979 406.48594413 520.44474171 406.48535156 523.97363281 C406.48524998 528.48839129 406.49890029 533.00299236 406.51612377 537.51771355 C406.52725984 540.99562293 406.52927027 544.47349445 406.52874184 547.95141983 C406.5299196 549.61553617 406.53432994 551.27965355 406.5420742 552.94375229 C406.55190638 555.27478713 406.54898341 557.60548276 406.54296875 559.93652344 C406.54858826 560.61932373 406.55420776 561.30212402 406.55999756 562.00561523 C406.52789097 566.91934965 406.01132472 571.46297002 402.80004883 575.34326172 C399.41463736 578.02337913 396.16704845 577.68332129 392.03622437 577.6889801 C391.27905833 577.69391808 390.52189229 577.69885606 389.74178183 577.70394367 C387.19138223 577.7193657 384.64100789 577.72769198 382.09057617 577.73608398 C380.26764197 577.74565881 378.44471 577.75566866 376.6217804 577.76608276 C371.66132751 577.79318072 366.70086506 577.81416375 361.74037886 577.83408475 C356.56067622 577.8559142 351.38100322 577.88331773 346.20132446 577.91014099 C336.38764272 577.96010909 326.57394457 578.00503261 316.76023066 578.04816335 C305.58988148 578.09750059 294.41956203 578.15243173 283.24924159 578.20784295 C260.26620506 578.32172618 237.28314002 578.42855137 214.30004883 578.53076172 C213.57996386 593.62071279 213.17071778 608.66274354 213.28601456 623.76943016 C213.30864783 626.86893762 213.32231737 629.96837912 213.33370972 633.06794739 C213.36678397 641.85731764 213.40952055 650.64657396 213.47143555 659.43579102 C213.5090662 664.86568741 213.53208561 670.29548143 213.54574203 675.72548866 C213.55376917 677.77759021 213.56733943 679.82967817 213.58667374 681.88170433 C213.61314646 684.73254695 213.62104316 687.58288766 213.62475586 690.43383789 C213.63711273 691.27066101 213.6494696 692.10748413 213.66220093 692.96966553 C213.64530219 697.88932742 213.06723406 701.28764475 210.30004883 705.53076172 C206.33848718 708.17180282 202.91666647 707.81851961 198.31811523 707.80541992 C197.39911942 707.81053085 196.4801236 707.81564178 195.53327942 707.82090759 C192.48932416 707.83483003 189.44559468 707.83384467 186.40161133 707.83154297 C184.28795283 707.83542876 182.17429512 707.83976319 180.06063843 707.8445282 C175.62706981 707.85199635 171.19358082 707.85169504 166.76000977 707.84643555 C161.07809809 707.84064359 155.39651266 707.85756256 149.71465492 707.88078022 C145.34805393 707.89551263 140.98153157 707.89638986 136.61491013 707.89327049 C134.52013885 707.89378406 132.42536321 707.89902852 130.330616 707.90908241 C127.40045239 707.92141824 124.47092491 707.91467184 121.54077148 707.90307617 C120.67514084 707.91071991 119.80951019 707.91836365 118.91764832 707.92623901 C114.30191091 707.88586374 110.88351982 707.77167422 107.30004883 704.53076172 C104.58753059 699.27605601 105.03842151 693.57335497 105.08886719 687.80297852 C105.09018143 686.73391266 105.09149567 685.6648468 105.09284973 684.56338501 C105.09933114 681.03549286 105.11976393 677.50781881 105.13989258 673.97998047 C105.14616626 671.52147151 105.15140527 669.06295971 105.15565491 666.60444641 C105.16895341 660.13224653 105.19337766 653.66014114 105.2210083 647.18798828 C105.2641259 636.83976382 105.2939163 626.49151506 105.31704903 616.14322853 C105.32723573 612.535528 105.344293 608.9279064 105.36204529 605.32023621 C105.36887766 603.09573435 105.37548629 600.8712318 105.38183594 598.64672852 C105.3885733 597.65058029 105.39531067 596.65443207 105.4022522 595.62809753 C105.41160028 589.84483603 105.04608237 584.26709786 104.30004883 578.53076172 C102.94417711 578.5335271 102.94417711 578.5335271 101.56091404 578.53634834 C79.55147035 578.58054585 57.54203433 578.6136273 35.53255558 578.63438606 C24.88887499 578.64469205 14.24522406 578.65873946 3.6015625 578.68164062 C-5.67706576 578.70159521 -14.95567254 578.71448308 -24.23432165 578.71893871 C-29.14580893 578.72154257 -34.05723476 578.72764875 -38.96870232 578.74222183 C-43.59546652 578.75583839 -48.22214421 578.75997613 -52.84892654 578.75697708 C-54.54317381 578.75752542 -56.23742409 578.76147852 -57.93165398 578.76917267 C-78.69601376 578.85881321 -78.69601376 578.85881321 -84.19995117 574.59326172 C-87.05259265 570.67087968 -86.84822131 566.85953016 -86.84521484 562.21704102 C-86.84857346 561.47521576 -86.85193207 560.7333905 -86.85539246 559.96908569 C-86.86489833 557.51436695 -86.86684552 555.05971648 -86.86791992 552.60498047 C-86.87113325 550.89728263 -86.87449738 549.18958507 -86.87800598 547.48188782 C-86.88399669 543.89994672 -86.88584599 540.31802974 -86.88525391 536.73608398 C-86.8851524 532.15291645 -86.89879283 527.56990425 -86.91602612 522.98677349 C-86.92716269 519.45824986 -86.92917259 515.92976354 -86.92864418 512.40122414 C-86.92982225 510.7119881 -86.9342343 509.02275104 -86.94197655 507.33353233 C-86.95180791 504.96646743 -86.94888585 502.59973665 -86.94287109 500.23266602 C-86.9484906 499.53894394 -86.95411011 498.84522186 -86.9598999 498.13047791 C-86.93262981 493.89284267 -86.5408174 490.3707046 -84.69995117 486.53076172 C-80.65231436 483.36391185 -77.03605466 483.10853283 -72.07536316 483.16999817 C-71.31563385 483.16743489 -70.55590454 483.16487162 -69.77315313 483.16223067 C-67.23185244 483.15729606 -64.69114814 483.17378005 -62.14990234 483.19018555 C-60.32652806 483.19103189 -58.50315275 483.19055654 -56.67977905 483.18885803 C-51.73179628 483.18799694 -46.78403148 483.20564126 -41.83609939 483.2265799 C-36.66445122 483.24532761 -31.49279812 483.24709564 -26.32112122 483.25065613 C-16.52872456 483.25998219 -6.73642831 483.2846036 3.05592412 483.3147046 C14.20454416 483.34823111 25.35316898 483.36473023 36.50182688 483.3797909 C59.43462321 483.41115263 82.3673304 483.46392408 105.30004883 483.53076172 C105.32317449 474.55155394 105.34096505 465.57235635 105.351861 456.59312534 C105.35708934 452.42413344 105.36418609 448.25516185 105.37548828 444.08618164 C105.38631891 440.06618486 105.39232603 436.04620767 105.39492607 432.02619743 C105.39678 430.48913197 105.40040001 428.95206762 105.40577888 427.41501045 C105.41299167 425.26940685 105.41403967 423.12388517 105.41357422 420.97827148 C105.41579483 419.75471451 105.41801544 418.53115753 105.42030334 417.27052307 C105.6129081 414.61848102 105.6129081 414.61848102 104.30004883 413.53076172 C102.61676298 413.43672297 100.92949737 413.41332964 99.24359131 413.41723633 C98.14609558 413.41730682 97.04859985 413.41737732 95.91784668 413.41744995 C94.70173706 413.42261627 93.48562744 413.42778259 92.23266602 413.43310547 C90.27622684 413.4353482 88.31978767 413.43759056 86.36334848 413.43981934 C84.24646279 413.44320193 82.1295964 413.44906364 80.0127182 413.45559692 C75.55602756 413.46918463 71.09934681 413.47503224 66.64263916 413.47973633 C55.52948486 413.49271533 44.416357 413.51683439 33.30322266 413.5411377 C-33.33572242 413.68573429 -33.33572242 413.68573429 -57.46468353 413.26730347 C-59.37688739 413.23504574 -61.28917458 413.2073493 -63.2015152 413.18460083 C-65.7650116 413.15202871 -68.32735216 413.10052902 -70.89038086 413.04248047 C-71.62081352 413.03608551 -72.35124619 413.02969055 -73.10381317 413.02310181 C-77.44622938 412.89521955 -80.24965235 412.20380462 -83.69995117 409.53076172 C-85.82041657 406.35006362 -85.96362767 405.47491157 -86.03466797 401.81689453 C-86.05769485 400.85507263 -86.08072174 399.89325073 -86.10444641 398.90228271 C-86.11920517 397.85671204 -86.13396393 396.81114136 -86.14916992 395.73388672 C-86.18272835 394.09954681 -86.18272835 394.09954681 -86.21696472 392.43218994 C-86.28553182 388.88180837 -86.3380598 385.33145888 -86.38745117 381.78076172 C-86.40608215 380.58169189 -86.42471313 379.38262207 -86.44390869 378.1472168 C-86.66258505 363.7767803 -86.85747787 349.40129966 -86.57495117 335.03076172 C-86.5655249 333.80131836 -86.55609863 332.571875 -86.54638672 331.30517578 C-86.39782219 326.50518463 -86.26283595 323.44020694 -83.70776367 319.31201172 C-76.60962369 315.10843791 -66.58256638 316.3932421 -58.56103516 316.41723633 C-56.62785683 316.41701729 -56.62785683 316.41701729 -54.65562439 316.41679382 C-51.14799053 316.41650877 -47.64039138 316.42235801 -44.13276553 316.42936778 C-40.45725099 316.43565021 -36.78173551 316.43620897 -33.10621643 316.43739319 C-26.15789576 316.44049215 -19.20959096 316.44868608 -12.26127726 316.45874268 C-4.34586464 316.46994852 3.56954877 316.4754255 11.48496735 316.48043811 C27.75667044 316.49086999 44.02835761 316.50844147 60.30004883 316.53076172 C58.37038575 313.00186514 56.43130493 309.47833367 54.48339844 305.95947266 C53.82226702 304.76201276 53.16371335 303.56312585 52.5078125 302.36279297 C51.5638653 300.63639143 50.60981492 298.91552616 49.65551758 297.19482422 C48.7992981 295.63948975 48.7992981 295.63948975 47.92578125 294.05273438 C46.3905642 291.30308519 46.3905642 291.30308519 43.30004883 289.53076172 C42.94525348 287.86853155 42.61460403 286.20107424 42.30004883 284.53076172 C40.9223428 282.04435686 40.9223428 282.04435686 39.23754883 279.71826172 C38.68969727 278.92806641 38.1418457 278.13787109 37.57739258 277.32373047 C37.15586914 276.73205078 36.7343457 276.14037109 36.30004883 275.53076172 C34.98004883 275.86076172 33.66004883 276.19076172 32.30004883 276.53076172 C32.63004883 275.21076172 32.96004883 273.89076172 33.30004883 272.53076172 C33.96004883 272.53076172 34.62004883 272.53076172 35.30004883 272.53076172 C31.85109236 266.3584092 28.39803823 260.18840611 24.93676758 254.02294922 C22.83983087 250.28678554 20.75335062 246.54589299 18.69458008 242.78857422 C18.00057927 241.53596473 17.30656988 240.28335999 16.61254883 239.03076172 C16.03118164 237.96857422 15.44981445 236.90638672 14.85083008 235.81201172 C13.43989527 233.24027441 13.43989527 233.24027441 10.30004883 232.53076172 C10.63004883 231.87076172 10.96004883 231.21076172 11.30004883 230.53076172 C10.38330911 228.37238156 10.38330911 228.37238156 8.94067383 225.97216797 C8.40684082 225.03703369 7.87300781 224.10189941 7.32299805 223.13842773 C6.44538818 221.63107056 6.44538818 221.63107056 5.55004883 220.09326172 C4.66663818 218.55980103 4.66663818 218.55980103 3.76538086 216.99536133 C2.54637293 214.88052508 1.32449254 212.76734215 0.09985352 210.65576172 C-1.5961337 207.71101994 -3.25945109 204.75066073 -4.91088867 201.78076172 C-5.88213867 200.05153654 -6.85348752 198.32236688 -7.82495117 196.59326172 C-8.27322266 195.77736572 -8.72149414 194.96146973 -9.18334961 194.12084961 C-9.60390625 193.38084717 -10.02446289 192.64084473 -10.45776367 191.87841797 C-11.00134521 190.90400757 -11.00134521 190.90400757 -11.5559082 189.90991211 C-11.93344238 189.45479248 -12.31097656 188.99967285 -12.69995117 188.53076172 C-13.68995117 188.53076172 -14.67995117 188.53076172 -15.69995117 188.53076172 C-15.69995117 186.22076172 -15.69995117 183.91076172 -15.69995117 181.53076172 C-17.34995117 181.53076172 -18.99995117 181.53076172 -20.69995117 181.53076172 C-20.36995117 180.87076172 -20.03995117 180.21076172 -19.69995117 179.53076172 C-19.69995117 176.06663022 -20.46111272 174.84903733 -22.18432617 171.89013672 C-22.70768555 170.98392578 -23.23104492 170.07771484 -23.77026367 169.14404297 C-24.32456055 168.19916016 -24.87885742 167.25427734 -25.44995117 166.28076172 C-25.9887793 165.35134766 -26.52760742 164.42193359 -27.08276367 163.46435547 C-28.13586917 161.64839063 -29.19368371 159.83514704 -30.2565918 158.02490234 C-31.15382059 156.47448127 -32.03143571 154.91232041 -32.87768555 153.33349609 C-34.84792188 149.41337436 -34.84792188 149.41337436 -38.69995117 147.53076172 C-38.74120117 146.74701172 -38.78245117 145.96326172 -38.82495117 145.15576172 C-39.89880557 140.70693636 -41.96167579 137.52431879 -44.42260742 133.70263672 C-45.69995117 131.53076172 -45.69995117 131.53076172 -45.69995117 129.53076172 C-46.35995117 129.20076172 -47.01995117 128.87076172 -47.69995117 128.53076172 C-48.55014759 127.14842797 -49.32752337 125.72125894 -50.07495117 124.28076172 C-53.28839399 118.23145562 -56.66827006 112.28572804 -60.07495117 106.34326172 C-60.62328613 105.38581055 -61.17162109 104.42835938 -61.73657227 103.44189453 C-63.05678569 101.13765818 -64.37789289 98.83393992 -65.69995117 96.53076172 C-66.35995117 96.53076172 -67.01995117 96.53076172 -67.69995117 96.53076172 C-67.82370117 95.89138672 -67.94745117 95.25201172 -68.07495117 94.59326172 C-68.28120117 93.91263672 -68.48745117 93.23201172 -68.69995117 92.53076172 C-69.68995117 92.03576172 -69.68995117 92.03576172 -70.69995117 91.53076172 C-71.03800419 89.86504594 -71.37044283 88.19818882 -71.69995117 86.53076172 C-72.54674253 84.75812917 -73.46682162 83.01953707 -74.43823242 81.31201172 C-75.00477539 80.30847656 -75.57131836 79.30494141 -76.1550293 78.27099609 C-76.76797852 77.20171875 -77.38092773 76.13244141 -78.01245117 75.03076172 C-78.64473633 73.91507812 -79.27702148 72.79939453 -79.9284668 71.64990234 C-81.84490797 68.27258324 -83.77091186 64.90089796 -85.69995117 61.53076172 C-86.73515638 59.71828968 -87.77031643 57.90579185 -88.80541992 56.09326172 C-90.25309931 53.56000457 -91.70187706 51.02740475 -93.15380859 48.49658203 C-97.69965859 40.56446859 -102.16018006 32.58529108 -106.59448242 24.59033203 C-109.27057497 19.78388941 -111.97944019 15.0185346 -114.87963867 10.34326172 C-115.35900879 9.5643457 -115.83837891 8.78542969 -116.33227539 7.98291016 C-117.21634319 6.5594379 -118.11550097 5.14517913 -119.0324707 3.74267578 C-120.19995117 1.85888672 -120.19995117 1.85888672 -121.69995117 -1.46923828 C-120.79370117 -4.17724609 -120.79370117 -4.17724609 -119.69995117 -6.46923828 C-105.20096706 -6.71683728 -90.70179519 -6.93502717 -76.20186424 -7.11945057 C-69.46900628 -7.20560425 -62.736532 -7.30120481 -56.00415039 -7.41918945 C-49.50751751 -7.5330159 -43.0108421 -7.62032542 -36.5135994 -7.69144249 C-34.03436159 -7.72291891 -31.55522033 -7.7632936 -29.07627487 -7.81269264 C-25.60480321 -7.88035287 -22.13433575 -7.91641209 -18.66235352 -7.94506836 C-17.63664246 -7.97239548 -16.6109314 -7.9997226 -15.55413818 -8.02787781 C-7.92296835 -8.04024678 -4.43069702 -6.43574174 0 0 Z " fill="#E0291F" transform="translate(351.699951171875,170.46923828125)"/>
<path d="M0 0 C1.67397102 -0.00639748 1.67397102 -0.00639748 3.38175964 -0.01292419 C4.60676682 -0.01247101 5.83177399 -0.01201782 7.09390259 -0.0115509 C9.02834984 -0.01658882 9.02834984 -0.01658882 11.00187683 -0.02172852 C14.54118296 -0.03056832 18.08046492 -0.03290663 21.61978102 -0.0335443 C24.57451814 -0.03449373 27.52924963 -0.03817244 30.48398459 -0.0417164 C37.45568542 -0.04986101 44.42737333 -0.05230064 51.39907837 -0.05158997 C58.58985614 -0.05098927 65.78055887 -0.06153938 72.97131765 -0.07733363 C79.14550644 -0.09041158 85.31967071 -0.09577375 91.49387324 -0.09513456 C95.18116748 -0.09487963 98.86839506 -0.09772791 102.55567551 -0.10831261 C106.66873042 -0.11979697 110.78161734 -0.11524521 114.89468384 -0.10920715 C116.7261219 -0.11763641 116.7261219 -0.11763641 118.59455872 -0.12623596 C120.27698921 -0.11994423 120.27698921 -0.11994423 121.9934082 -0.11352539 C123.45183167 -0.11434254 123.45183167 -0.11434254 124.93971825 -0.1151762 C127.82616966 0.15248925 129.99969377 0.9310509 132.62368774 2.13371277 C132.62368774 2.46371277 132.62368774 2.79371277 132.62368774 3.13371277 C131.54555203 3.14006068 131.54555203 3.14006068 130.4456358 3.14653683 C112.96969426 3.24976903 95.49379463 3.3583956 78.01792431 3.47305202 C69.5667834 3.52836806 61.11563826 3.58184742 52.66445923 3.63102722 C45.29980227 3.67388888 37.93517619 3.7201719 30.57056695 3.77059132 C26.66982356 3.79717627 22.76908623 3.82202897 18.86830711 3.84278679 C15.19857198 3.86236912 11.52889554 3.88651771 7.85921288 3.91420364 C5.8666723 3.92803749 3.87409978 3.93699821 1.88153076 3.9458313 C0.6994252 3.95562012 -0.48268036 3.96540894 -1.7006073 3.97549438 C-2.73025006 3.98194694 -3.75989283 3.98839949 -4.82073689 3.99504757 C-7.49791807 4.02737945 -7.49791807 4.02737945 -10.37631226 5.13371277 C-10.37631226 33.84371277 -10.37631226 62.55371277 -10.37631226 92.13371277 C-11.03631226 92.13371277 -11.69631226 92.13371277 -12.37631226 92.13371277 C-13.56923269 89.7478719 -13.53887542 88.19809316 -13.59750366 85.53337097 C-13.62060608 84.57147354 -13.6437085 83.60957611 -13.66751099 82.61853027 C-13.68743103 81.56779831 -13.70735107 80.51706635 -13.72787476 79.43449402 C-13.75166199 78.34351913 -13.77544922 77.25254425 -13.79995728 76.12850952 C-13.87427081 72.56784157 -13.93933225 69.00711598 -14.00131226 65.44621277 C-14.0224408 64.24464539 -14.04356934 63.043078 -14.06533813 61.80509949 C-14.30803991 47.41555962 -14.54241809 33.02380652 -14.25131226 18.63371277 C-14.24180542 17.40434998 -14.23229858 16.17498718 -14.22250366 14.90837097 C-13.97678487 6.95019699 -13.97678487 6.95019699 -11.00912476 2.91496277 C-7.21194086 0.34594815 -4.47750097 0.0077235 0 0 Z " fill="#DE1A13" transform="translate(279.3763122558594,486.8662872314453)"/>
<path d="M0 0 C0.33 0 0.66 0 1 0 C2.27886014 22.52795278 2.18759503 45.07051973 2.18530273 67.62695312 C2.18519974 73.19605656 2.19902984 78.76503642 2.21607494 84.33411026 C2.22716899 88.65261418 2.22922301 92.97108747 2.22869301 97.28960419 C2.22987016 99.34529815 2.23427705 101.40099297 2.24202538 103.45667267 C2.25180445 106.31007396 2.24895923 109.16319594 2.24291992 112.01660156 C2.24853943 112.85701996 2.25415894 113.69743835 2.25994873 114.56332397 C2.23695125 118.83168972 1.97792415 122.10660827 0 126 C-0.66 125.67 -1.32 125.34 -2 125 C-1.89285523 108.99728675 -1.78011094 92.99462435 -1.66066074 76.99199867 C-1.60533188 69.56206471 -1.55185044 62.13212595 -1.50268555 54.70214844 C-1.45983958 48.2278125 -1.41356055 41.75351188 -1.36312145 35.27923048 C-1.33652382 31.84968447 -1.31167085 28.42014545 -1.29092598 24.99055862 C-1.26772989 21.16634705 -1.23687073 17.34221867 -1.20532227 13.51806641 C-1.1995668 12.37511612 -1.19381134 11.23216583 -1.18788147 10.05458069 C-1.17809265 9.01689041 -1.16830383 7.97920013 -1.15821838 6.9100647 C-1.15176583 6.00486399 -1.14531328 5.09966328 -1.1386652 4.16703224 C-1 2 -1 2 0 0 Z " fill="#E12018" transform="translate(563,749)"/>
<path d="M0 0 C3.72548963 1.24182988 3.9042787 2.14148532 5.6796875 5.5390625 C6.19031738 6.50166992 6.70094727 7.46427734 7.22705078 8.45605469 C8.04278564 10.02468262 8.04278564 10.02468262 8.875 11.625 C10.03464732 13.81085758 11.19615797 15.99572747 12.359375 18.1796875 C12.95685547 19.3047168 13.55433594 20.42974609 14.16992188 21.58886719 C17.08217614 27.01709778 20.09442831 32.38715696 23.125 37.75 C23.66882324 38.7188916 24.21264648 39.6877832 24.77294922 40.68603516 C25.2835791 41.5888623 25.79420898 42.49168945 26.3203125 43.421875 C26.76648926 44.21174805 27.21266602 45.00162109 27.67236328 45.81542969 C28.9698621 48.03786169 28.9698621 48.03786169 30.60498047 50.09863281 C32 52 32 52 33 55 C33.96531548 56.74301981 34.961969 58.46878995 35.9765625 60.18359375 C36.85828125 61.69856445 36.85828125 61.69856445 37.7578125 63.24414062 C39.00290031 65.37355335 40.25552377 67.49857771 41.515625 69.61914062 C42.10085938 70.63041016 42.68609375 71.64167969 43.2890625 72.68359375 C43.83256348 73.60712646 44.37606445 74.53065918 44.93603516 75.48217773 C46.10182331 78.24096002 46.09632526 79.26878268 45 82 C44.6690332 81.41323486 44.33806641 80.82646973 43.99707031 80.22192383 C42.4153024 77.41844976 40.83276542 74.61541103 39.25 71.8125 C38.3674353 70.2493103 38.3674353 70.2493103 37.46704102 68.65454102 C34.13223574 62.75374492 30.77947864 56.86396375 27.40234375 50.98730469 C22.22907417 41.98236677 17.18866663 32.91496947 12.24487305 23.78198242 C8.72005498 17.27973672 5.07936308 10.85842995 1.328125 4.484375 C0 2 0 2 0 0 Z " fill="#DF1D15" transform="translate(399,260)"/>
<path d="M0 0 C0.33 0 0.66 0 1 0 C1.02505615 1.06734375 1.0501123 2.1346875 1.07592773 3.234375 C1.17161596 7.27514391 1.27141094 11.31580356 1.37231445 15.35644531 C1.41506448 17.0901429 1.4567676 18.82386668 1.49731445 20.55761719 C1.72814866 30.3951441 2.10026713 40.18909755 2.76147461 50.0078125 C3.19910937 57.33248357 3.36894713 64.66553119 3.5625 72 C3.60586703 73.56511119 3.64948577 75.13021543 3.69335938 76.6953125 C3.79845763 80.4634683 3.90020936 84.23170006 4 88 C3.01 87.67 2.02 87.34 1 87 C-0.62922185 83.2695712 -0.13241788 78.92950412 -0.11352539 74.92675781 C-0.11374443 73.71156212 -0.11374443 73.71156212 -0.1139679 72.47181702 C-0.11327224 69.79889227 -0.10549606 67.12603755 -0.09765625 64.453125 C-0.09579084 62.59796181 -0.09436752 60.74279813 -0.09336853 58.88763428 C-0.08955305 54.00830726 -0.07973102 49.12901007 -0.06866455 44.24969482 C-0.05842961 39.2693319 -0.05386644 34.28896416 -0.04882812 29.30859375 C-0.0381079 19.5390494 -0.02104309 9.76952718 0 0 Z " fill="#E3372C" transform="translate(457,786)"/>
<path d="M0 0 C0.99 0 1.98 0 3 0 C3.37809814 0.72179443 3.75619629 1.44358887 4.14575195 2.18725586 C5.85811047 5.44265337 7.58506929 8.69007713 9.3125 11.9375 C9.90740234 13.07380859 10.50230469 14.21011719 11.11523438 15.38085938 C11.69208984 16.46044922 12.26894531 17.54003906 12.86328125 18.65234375 C13.65665894 20.15269165 13.65665894 20.15269165 14.46606445 21.68334961 C15.85165984 24.29300836 15.85165984 24.29300836 19 25 C19.061875 25.804375 19.12375 26.60875 19.1875 27.4375 C20.42903013 32.8811321 23.02793474 38.02793474 27 42 C28.31293296 44.50703534 29.57733074 47.01770502 30.8125 49.5625 C33.45180443 54.93846025 36.15444499 60.23027139 39.1875 65.3984375 C40 67 40 67 40 69 C39.34 69 38.68 69 38 69 C37.6690332 68.38294189 37.33806641 67.76588379 36.99707031 67.13012695 C29.71006964 53.56291528 22.26551715 40.10656811 14.58398438 26.75927734 C11.6219147 21.5993958 8.68436577 16.42567223 5.75 11.25 C4.88955078 9.73877563 4.88955078 9.73877563 4.01171875 8.19702148 C3.48707031 7.27091064 2.96242188 6.3447998 2.421875 5.390625 C1.95362305 4.56594727 1.48537109 3.74126953 1.00292969 2.89160156 C0 1 0 1 0 0 Z " fill="#DF1C14" transform="translate(445,343)"/>
<path d="M0 0 C0 0.33 0 0.66 0 1 C-6.26103241 2.11294963 -12.39378477 2.14478803 -18.7421875 2.1328125 C-20.42660446 2.13424759 -20.42660446 2.13424759 -22.14505005 2.13571167 C-24.51353003 2.13639024 -26.8820119 2.13455853 -29.25048828 2.13037109 C-32.85583728 2.1250284 -36.46106115 2.13032193 -40.06640625 2.13671875 C-42.37500027 2.13605772 -44.68359422 2.13477603 -46.9921875 2.1328125 C-48.59572586 2.13584885 -48.59572586 2.13584885 -50.23165894 2.13894653 C-56.23655133 2.12034928 -62.04489528 1.78093377 -68 1 C-68 0.67 -68 0.34 -68 0 C-45.25604793 -1.30231218 -22.75220654 -1.07337888 0 0 Z " fill="#E01911" transform="translate(679,655)"/>
<path d="M0 0 C0.66 0 1.32 0 2 0 C0.34721033 5.97393855 -2.63564495 11.1164015 -5.625 16.5 C-6.15899414 17.47018066 -6.69298828 18.44036133 -7.24316406 19.43994141 C-11.41773758 27.0046301 -15.66395223 34.52669414 -20 42 C-20.66 42 -21.32 42 -22 42 C-20.62305021 37.42875143 -18.76642554 33.48373861 -16.4453125 29.31640625 C-16.10249237 28.69781235 -15.75967224 28.07921844 -15.40646362 27.44187927 C-14.31735824 25.47942008 -13.2212746 23.52096148 -12.125 21.5625 C-11.39668063 20.25220581 -10.66881204 18.94166095 -9.94140625 17.63085938 C-6.66380562 11.73293445 -3.35436841 5.85456788 0 0 Z " fill="#E21D14" transform="translate(566,363)"/>
<path d="M0 0 C9.9 0 19.8 0 30 0 C30 0.33 30 0.66 30 1 C26.37 1.33 22.74 1.66 19 2 C21.475 2.495 21.475 2.495 24 3 C24 3.33 24 3.66 24 4 C13.77 4 3.54 4 -7 4 C-4 2 -4 2 0 2 C0 1.34 0 0.68 0 0 Z " fill="#E53126" transform="translate(601,654)"/>
<path d="M0 0 C1 3 1 3 0.09130859 5.21728516 C-0.6229126 6.49031494 -0.6229126 6.49031494 -1.3515625 7.7890625 C-1.87363281 8.73136719 -2.39570312 9.67367188 -2.93359375 10.64453125 C-3.49175781 11.62808594 -4.04992187 12.61164063 -4.625 13.625 C-5.15996094 14.58535156 -5.69492187 15.54570312 -6.24609375 16.53515625 C-7.30998209 18.44290736 -8.38055186 20.34694891 -9.45800781 22.24707031 C-10.4655247 24.04579742 -11.45041293 25.8574389 -12.40917969 27.68261719 C-12.83875977 28.49633789 -13.26833984 29.31005859 -13.7109375 30.1484375 C-14.0826709 30.86950684 -14.4544043 31.59057617 -14.83740234 32.33349609 C-16 34 -16 34 -19 35 C-17.66846905 31.51247159 -16.14182408 28.25717267 -14.35546875 24.98046875 C-13.84306641 24.04009766 -13.33066406 23.09972656 -12.80273438 22.13085938 C-12.00319336 20.67389648 -12.00319336 20.67389648 -11.1875 19.1875 C-10.66607422 18.22779297 -10.14464844 17.26808594 -9.60742188 16.27929688 C-6.5744312 10.73206673 -3.40897954 5.32456139 0 0 Z " fill="#DF1B13" transform="translate(735,263)"/>
<path d="M0 0 C0.66 0 1.32 0 2 0 C1.06337834 4.18921143 -0.75801956 7.8158781 -2.6875 11.625 C-3.04328125 12.33269531 -3.3990625 13.04039062 -3.765625 13.76953125 C-6.59439238 19.33581546 -9.65341597 24.72659487 -13 30 C-14.02734862 27.35353154 -14.10805364 26.27232716 -13.04370117 23.58984375 C-12.54845947 22.71457031 -12.05321777 21.83929688 -11.54296875 20.9375 C-11.00736328 19.97585938 -10.47175781 19.01421875 -9.91992188 18.0234375 C-9.34822266 17.02570313 -8.77652344 16.02796875 -8.1875 15 C-7.07654405 13.02098986 -5.96585643 11.04182905 -4.85546875 9.0625 C-4.10753052 7.74958984 -4.10753052 7.74958984 -3.34448242 6.41015625 C-2.16666737 4.29877251 -1.06002992 2.17235254 0 0 Z " fill="#E01C14" transform="translate(529,430)"/>
<path d="M0 0 C0.99 0.33 1.98 0.66 3 1 C3.98783094 3.96349281 4.13410525 5.9712663 4.125 9.0625 C4.12757813 9.94035156 4.13015625 10.81820312 4.1328125 11.72265625 C4 14 4 14 3 16 C2.84733388 17.73868744 2.75067404 19.48247501 2.68359375 21.2265625 C2.64169922 22.2578125 2.59980469 23.2890625 2.55664062 24.3515625 C2.49766602 25.97191406 2.49766602 25.97191406 2.4375 27.625 C2.39431641 28.71296875 2.35113281 29.8009375 2.30664062 30.921875 C2.2003547 33.6144517 2.09831943 36.30712253 2 39 C1.67 39 1.34 39 1 39 C1.00523682 38.24493164 1.01047363 37.48986328 1.01586914 36.71191406 C1.03691225 33.22461816 1.0497459 29.73733569 1.0625 26.25 C1.07087891 25.06277344 1.07925781 23.87554688 1.08789062 22.65234375 C1.10867032 15.04697478 0.77144376 7.56658475 0 0 Z " fill="#E4352A" transform="translate(456,746)"/>
<path d="M0 0 C3 1 3 1 5 3 C5.66 3.33 6.32 3.66 7 4 C7.11214844 4.83789062 7.22429687 5.67578125 7.33984375 6.5390625 C8.20579113 11.0788813 10.23231684 14.42831918 12.5625 18.375 C12.98724609 19.11105469 13.41199219 19.84710938 13.84960938 20.60546875 C14.89156141 22.40839699 15.94466854 24.20487053 17 26 C16.01 26.33 15.02 26.66 14 27 C12.03702621 23.44003818 10.08044562 19.87660169 8.125 16.3125 C7.56941406 15.30509766 7.01382812 14.29769531 6.44140625 13.25976562 C5.90644531 12.28330078 5.37148438 11.30683594 4.8203125 10.30078125 C4.32805176 9.40528564 3.83579102 8.50979004 3.32861328 7.5871582 C2.05263036 5.1024851 0.99120616 2.60962783 0 0 Z " fill="#E12017" transform="translate(497,436)"/>
<path d="M0 0 C0.99 0.33 1.98 0.66 3 1 C0.90045554 4.75260578 -1.20543239 8.50161404 -3.3125 12.25 C-4.20485352 13.84521484 -4.20485352 13.84521484 -5.11523438 15.47265625 C-5.69208984 16.49746094 -6.26894531 17.52226562 -6.86328125 18.578125 C-7.39219971 19.52075195 -7.92111816 20.46337891 -8.46606445 21.43457031 C-9.85276852 23.75376278 -11.33309973 25.87650451 -13 28 C-11.48484848 17.39393939 -11.48484848 17.39393939 -8.66015625 14.7421875 C-6.29661441 12.26185889 -4.87729331 9.32774891 -3.3125 6.3125 C-2.83200195 5.40274414 -2.83200195 5.40274414 -2.34179688 4.47460938 C-1.55628516 2.98565434 -0.77747058 1.49316953 0 0 Z " fill="#DF1C14" transform="translate(670,176)"/>
<path d="M0 0 C2.4375 0.6875 2.4375 0.6875 5 2 C5.14308594 2.72703125 5.28617187 3.4540625 5.43359375 4.203125 C6.35721253 8.76389084 9.12383514 12.2770776 11.6015625 16.16015625 C13.14823607 19.30102687 13.01591069 19.84797452 12 23 C11.07767578 21.35451172 11.07767578 21.35451172 10.13671875 19.67578125 C9.32035083 18.22133265 8.50394244 16.76690677 7.6875 15.3125 C7.28337891 14.59126953 6.87925781 13.87003906 6.46289062 13.12695312 C4.75524642 10.08651345 3.04375605 7.07063885 1.20703125 4.10546875 C0 2 0 2 0 0 Z " fill="#DF1E15" transform="translate(371,210)"/>
<path d="M0 0 C3.86905871 3.5698534 6.13844869 8.0440487 8.75 12.5625 C9.26949219 13.43841797 9.78898437 14.31433594 10.32421875 15.21679688 C10.81019531 16.05404297 11.29617188 16.89128906 11.796875 17.75390625 C12.24385742 18.52033447 12.69083984 19.2867627 13.15136719 20.07641602 C13.43141602 20.71119873 13.71146484 21.34598145 14 22 C13.67 22.66 13.34 23.32 13 24 C9.28969189 20.57323513 7.22759996 16.38232118 4.8125 12 C4.34908203 11.18015625 3.88566406 10.3603125 3.40820312 9.515625 C2.75174805 8.33226562 2.75174805 8.33226562 2.08203125 7.125 C1.48225464 6.04605469 1.48225464 6.04605469 0.87036133 4.9453125 C0 3 0 3 0 0 Z " fill="#DF1A11" transform="translate(369,408)"/>
<path d="M0 0 C0.66 0 1.32 0 2 0 C3.14501953 1.51293945 3.14501953 1.51293945 4.3828125 3.61328125 C5.04990234 4.7434668 5.04990234 4.7434668 5.73046875 5.89648438 C6.42076172 7.09241211 6.42076172 7.09241211 7.125 8.3125 C7.59292969 9.09818359 8.06085938 9.88386719 8.54296875 10.69335938 C12 16.61465926 12 16.61465926 12 20 C11.34 20 10.68 20 10 20 C8.3264663 17.04550087 6.66236015 14.0857982 5 11.125 C4.52304688 10.28324219 4.04609375 9.44148437 3.5546875 8.57421875 C3.10351562 7.76855469 2.65234375 6.96289062 2.1875 6.1328125 C1.76855469 5.38918457 1.34960938 4.64555664 0.91796875 3.87939453 C0 2 0 2 0 0 Z " fill="#DE1D14" transform="translate(240,184)"/>
<path d="M0 0 C1 3 1 3 0.0390625 5.41015625 C-0.42757812 6.28542969 -0.89421875 7.16070312 -1.375 8.0625 C-1.83648438 8.94035156 -2.29796875 9.81820313 -2.7734375 10.72265625 C-3.17820312 11.47417969 -3.58296875 12.22570312 -4 13 C-4.33 13.66 -4.66 14.32 -5 15 C-6.26660533 17.04291182 -7.59886384 19.04690112 -9 21 C-9.66 21 -10.32 21 -11 21 C-9.53171057 15.82064939 -7.18508737 11.65626588 -4.375 7.125 C-3.95476563 6.43664062 -3.53453125 5.74828125 -3.1015625 5.0390625 C-2.07307528 3.35608342 -1.037279 1.67757468 0 0 Z " fill="#E01D15" transform="translate(636,441)"/>
<path d="M0 0 C2.94850541 3.54343666 5.45497056 7.16435054 7.8125 11.125 C8.43769531 12.15882813 9.06289063 13.19265625 9.70703125 14.2578125 C11 17 11 17 10 20 C9.54625 19.525625 9.0925 19.05125 8.625 18.5625 C7.06741796 16.90972192 7.06741796 16.90972192 5 16 C5.33 15.34 5.66 14.68 6 14 C4.77035399 11.39231562 4.77035399 11.39231562 3.0625 8.5625 C0 3.32346241 0 3.32346241 0 0 Z " fill="#DF1C15" transform="translate(357,387)"/>
<path d="M0 0 C0.99 0.33 1.98 0.66 3 1 C-1.95 9.91 -1.95 9.91 -7 19 C-7.66 19 -8.32 19 -9 19 C-7.6077541 14.37324343 -5.70479016 10.35313769 -3.375 6.125 C-2.74335937 4.97257812 -2.11171875 3.82015625 -1.4609375 2.6328125 C-0.97882812 1.76398438 -0.49671875 0.89515625 0 0 Z " fill="#E11B13" transform="translate(603,296)"/>
<path d="M0 0 C3.27905867 3.02458627 5.53769852 6.16875541 7.8125 10 C8.43769531 11.03125 9.06289063 12.0625 9.70703125 13.125 C11.1199655 16.26675108 10.99306907 16.88763219 10 20 C8.32265277 17.23549979 6.66002366 14.46243144 5 11.6875 C4.52304687 10.90181641 4.04609375 10.11613281 3.5546875 9.30664062 C2.87792969 8.1706543 2.87792969 8.1706543 2.1875 7.01171875 C1.76855469 6.31522217 1.34960938 5.61872559 0.91796875 4.90112305 C0 3 0 3 0 0 Z " fill="#DF1C14" transform="translate(357,184)"/>
<path d="M0 0 C3.68579122 3.22914452 5.68356245 6.88653531 7.75 11.25 C8.06582031 11.8996875 8.38164062 12.549375 8.70703125 13.21875 C9.47873965 14.80893701 10.24040275 16.40399229 11 18 C10.34 18.33 9.68 18.66 9 19 C7.49212623 16.40011448 5.99354539 13.79559803 4.5 11.1875 C4.07074219 10.44951172 3.64148438 9.71152344 3.19921875 8.95117188 C2.79316406 8.23896484 2.38710938 7.52675781 1.96875 6.79296875 C1.40317383 5.81106567 1.40317383 5.81106567 0.82617188 4.80932617 C0 3 0 3 0 0 Z " fill="#DE1B13" transform="translate(346,368)"/>
<path d="M0 0 C0.99 0.33 1.98 0.66 3 1 C-0.3 6.61 -3.6 12.22 -7 18 C-8.12786566 13.48853734 -7.50999951 12.52182991 -5.24414062 8.671875 C-4.85419922 8.03765625 -4.46425781 7.4034375 -4.0625 6.75 C-3.67642578 6.1003125 -3.29035156 5.450625 -2.89257812 4.78125 C-1.93941582 3.18087871 -0.97114076 1.5895258 0 0 Z " fill="#E01C14" transform="translate(621,264)"/>
<path d="M0 0 C0.79454266 2.30673677 1.13895046 3.57888634 0.36328125 5.9296875 C-1.8944297 10.10939031 -4.14592514 14.19456685 -7 18 C-7.66 18 -8.32 18 -9 18 C-7.65072455 13.46152802 -5.80840652 9.68067754 -3.375 5.625 C-2.74335937 4.56539062 -2.11171875 3.50578125 -1.4609375 2.4140625 C-0.73777344 1.21910156 -0.73777344 1.21910156 0 0 Z " fill="#E11D14" transform="translate(755,227)"/>
<path d="M0 0 C0.66 0 1.32 0 2 0 C1.32599282 3.91114026 -0.54256033 6.87119182 -2.5625 10.25 C-3.20316406 11.32765625 -3.84382812 12.4053125 -4.50390625 13.515625 C-4.99761719 14.33546875 -5.49132812 15.1553125 -6 16 C-6.5534764 13.92446352 -7 12.15634036 -7 10 C-6.5875 9.608125 -6.175 9.21625 -5.75 8.8125 C-3.21580866 6.18780183 -1.74974638 3.19781235 0 0 Z " fill="#E11D15" transform="translate(631,246)"/>
<path d="M0 0 C1 3 1 3 -0.43359375 6.13671875 C-1.09135973 7.3260128 -1.75977815 8.50946371 -2.4375 9.6875 C-2.77587891 10.29400391 -3.11425781 10.90050781 -3.46289062 11.52539062 C-4.29957915 13.0220025 -5.14862831 14.51169189 -6 16 C-6.66 16 -7.32 16 -8 16 C-6.42986223 10.03347646 -3.24970218 5.17090975 0 0 Z " fill="#E11A12" transform="translate(688,347)"/>
<path d="M0 0 C4.17906895 3.55994763 6.68559431 8.08663054 9 13 C9 13.66 9 14.32 9 15 C5.07994061 13.69331354 4.71967958 12.21332305 2.8125 8.625 C2.01779297 7.15933594 2.01779297 7.15933594 1.20703125 5.6640625 C0 3 0 3 0 0 Z " fill="#DF1811" transform="translate(324,330)"/>
<path d="M0 0 C0.66 0 1.32 0 2 0 C4.64 4.62 7.28 9.24 10 14 C6 13 6 13 4.296875 10.56640625 C3.78640625 9.57511719 3.2759375 8.58382813 2.75 7.5625 C1.96882813 6.07943359 1.96882813 6.07943359 1.171875 4.56640625 C0 2 0 2 0 0 Z " fill="#DF1C13" transform="translate(308,303)"/>
<path d="M0 0 C4.5565527 3.71274665 6.57400393 8.79007402 9 14 C8.01 14.495 8.01 14.495 7 15 C5.82539808 13.06730041 4.66055528 11.12866687 3.5 9.1875 C2.8503125 8.10855469 2.200625 7.02960938 1.53125 5.91796875 C0 3 0 3 0 0 Z " fill="#DE1D14" transform="translate(287,266)"/>
<path d="M0 0 C0.33 0.66 0.66 1.32 1 2 C-0.24282012 4.45038293 -1.52882339 6.773325 -2.9375 9.125 C-3.32357422 9.78371094 -3.70964844 10.44242187 -4.10742188 11.12109375 C-5.06446578 12.751613 -6.03132815 14.37636184 -7 16 C-8 13 -8 13 -6.85546875 10.37109375 C-6.02982422 8.91896484 -6.02982422 8.91896484 -5.1875 7.4375 C-4.64480469 6.46683594 -4.10210938 5.49617188 -3.54296875 4.49609375 C-2 2 -2 2 0 0 Z " fill="#E01912" transform="translate(577,345)"/>
<path d="M0 0 C0.66 0 1.32 0 2 0 C0.45454854 5.47932789 -2.15543212 10.11429181 -5 15 C-5.66 15 -6.32 15 -7 15 C-5.45454854 9.52067211 -2.84456788 4.88570819 0 0 Z " fill="#E11811" transform="translate(778,186)"/>
<path d="M0 0 C3.1875 0.25 3.1875 0.25 7.1875 3.25 C1.2475 3.25 -4.6925 3.25 -10.8125 3.25 C-10.8125 2.92 -10.8125 2.59 -10.8125 2.25 C-9.678125 2.105625 -8.54375 1.96125 -7.375 1.8125 C-3.93989237 1.27011458 -3.26653769 0.29035891 0 0 Z " fill="#E01D14" transform="translate(730.8125,653.75)"/>
<path d="M0 0 C4.32449714 3.26739784 7.06497913 5.76406117 9 11 C8.67 11.99 8.34 12.98 8 14 C7.38511719 13.06027344 7.38511719 13.06027344 6.7578125 12.1015625 C6.21898437 11.28429687 5.68015625 10.46703125 5.125 9.625 C4.59132813 8.81289062 4.05765625 8.00078125 3.5078125 7.1640625 C2.04134945 4.92405904 2.04134945 4.92405904 0 3 C0 2.01 0 1.02 0 0 Z " fill="#DF1D14" transform="translate(344,163)"/>
<path d="M0 0 C1 3 1 3 -0.21484375 5.69921875 C-0.78332031 6.68535156 -1.35179687 7.67148437 -1.9375 8.6875 C-2.50339844 9.68136719 -3.06929687 10.67523438 -3.65234375 11.69921875 C-4.31943359 12.83810547 -4.31943359 12.83810547 -5 14 C-5.66 14 -6.32 14 -7 14 C-2.8 2.8 -2.8 2.8 0 0 Z " fill="#DF1911" transform="translate(666,387)"/>
<path d="M0 0 C1 3 1 3 -0.21484375 5.69921875 C-0.78332031 6.68535156 -1.35179687 7.67148437 -1.9375 8.6875 C-2.50339844 9.68136719 -3.06929687 10.67523438 -3.65234375 11.69921875 C-4.31943359 12.83810547 -4.31943359 12.83810547 -5 14 C-5.66 14 -6.32 14 -7 14 C-5.53967505 8.68972746 -3.01679014 4.53669968 0 0 Z " fill="#E01911" transform="translate(697,331)"/>
<path d="M0 0 C0.66 0 1.32 0 2 0 C0.58707905 4.8274799 -1.42974154 8.7162359 -4 13 C-5.0169313 10.34501768 -5.13022151 9.30844625 -4.00390625 6.640625 C-3.52824219 5.85171875 -3.05257812 5.0628125 -2.5625 4.25 C-2.08941406 3.45078125 -1.61632812 2.6515625 -1.12890625 1.828125 C-0.75636719 1.22484375 -0.38382813 0.6215625 0 0 Z " fill="#E01912" transform="translate(645,221)"/>
<path d="M0 0 C0.66 0 1.32 0 2 0 C3.98 3.63 5.96 7.26 8 11 C7.34 11.66 6.68 12.32 6 13 C4.99491199 11.21118264 3.99607264 9.41885304 3 7.625 C2.1646875 6.12839844 2.1646875 6.12839844 1.3125 4.6015625 C0 2 0 2 0 0 Z " fill="#DE1D14" transform="translate(405,472)"/>
<path d="M0 0 C1.0169313 2.65498232 1.13022151 3.69155375 0.00390625 6.359375 C-0.47175781 7.14828125 -0.94742188 7.9371875 -1.4375 8.75 C-1.91058594 9.54921875 -2.38367188 10.3484375 -2.87109375 11.171875 C-3.24363281 11.77515625 -3.61617187 12.3784375 -4 13 C-4.66 13 -5.32 13 -6 13 C-4.58707905 8.1725201 -2.57025846 4.2837641 0 0 Z " fill="#E11C13" transform="translate(649,417)"/>
<path d="M0 0 C3.33511388 2.9901021 5.21521119 5.89498574 7 10 C7 10.66 7 11.32 7 12 C6.34 12 5.68 12 5 12 C4.15885829 10.56705502 3.32734313 9.12845595 2.5 7.6875 C1.80390625 6.48673828 1.80390625 6.48673828 1.09375 5.26171875 C0 3 0 3 0 0 Z " fill="#DF1B12" transform="translate(398,459)"/>
<path d="M0 0 C3.33511388 2.9901021 5.21521119 5.89498574 7 10 C7 10.66 7 11.32 7 12 C6.34 12 5.68 12 5 12 C4.15885829 10.56705502 3.32734313 9.12845595 2.5 7.6875 C1.80390625 6.48673828 1.80390625 6.48673828 1.09375 5.26171875 C0 3 0 3 0 0 Z " fill="#DE1B12" transform="translate(490,422)"/>
<path d="M0 0 C3.33511388 2.9901021 5.21521119 5.89498574 7 10 C7 10.66 7 11.32 7 12 C6.34 12 5.68 12 5 12 C4.15885829 10.56705502 3.32734313 9.12845595 2.5 7.6875 C1.80390625 6.48673828 1.80390625 6.48673828 1.09375 5.26171875 C0 3 0 3 0 0 Z " fill="#DE1911" transform="translate(263,224)"/>
<path d="M0 0 C0.66 0 1.32 0 2 0 C0.78065514 4.03321763 -0.55954927 7.54269479 -3 11 C-3.66 11 -4.32 11 -5 11 C-3.78065514 6.96678237 -2.44045073 3.45730521 0 0 Z " fill="#E01C14" transform="translate(762,214)"/>
<path d="M0 0 C0.99 0.33 1.98 0.66 3 1 C0.03 5.95 0.03 5.95 -3 11 C-4 7 -4 7 -3.22265625 5.078125 C-1.61132812 2.5390625 -1.61132812 2.5390625 0 0 Z " fill="#DF1C13" transform="translate(652,208)"/>
<path d="M0 0 C0.33 0 0.66 0 1 0 C1.33 5.61 1.66 11.22 2 17 C1.01 16.67 0.02 16.34 -1 16 C-0.67 10.72 -0.34 5.44 0 0 Z " fill="#DE1912" transform="translate(459,857)"/>
<path d="M0 0 C3.32368224 1.10789408 3.61563093 1.48436217 5.25 4.375 C5.60578125 4.98085937 5.9615625 5.58671875 6.328125 6.2109375 C7 8 7 8 6 11 C0 3.28571429 0 3.28571429 0 0 Z " fill="#DF1B12" transform="translate(391,246)"/>
<path d="M0 0 C0.33 0.66 0.66 1.32 1 2 C-0.25 5.0625 -0.25 5.0625 -2 8 C-2.99 8.33 -3.98 8.66 -5 9 C-3.90931332 5.22454612 -3.0916909 2.52956528 0 0 Z " fill="#E11E16" transform="translate(586,329)"/>
<path d="M0 0 C0.75 1.5625 0.75 1.5625 1 4 C-0.13084437 6.50286409 -1.52139516 8.67007722 -3 11 C-3.66 10.67 -4.32 10.34 -5 10 C-3.84414715 6.08788267 -2.64465038 3.1254959 0 0 Z " fill="#E01A13" transform="translate(714,300)"/>
<path d="M0 0 C3.48331435 3.01887244 4.79157144 5.56909529 6 10 C5.34 10 4.68 10 4 10 C0 3.375 0 3.375 0 0 Z " fill="#DD1811" transform="translate(385,234)"/>
<path d="M0 0 C1 3 1 3 0.22265625 4.82421875 C-0.8515625 6.54947917 -1.92578125 8.27473958 -3 10 C-3.66 10 -4.32 10 -5 10 C-3.84414715 6.08788267 -2.64465038 3.1254959 0 0 Z " fill="#E11A11" transform="translate(769,203)"/>
<path d="M0 0 C1 3 1 3 0.22265625 4.82421875 C-0.8515625 6.54947917 -1.92578125 8.27473958 -3 10 C-3.66 10 -4.32 10 -5 10 C-3.66511872 6.40608886 -2.03977277 3.24509304 0 0 Z " fill="#DF1811" transform="translate(672,376)"/>
<path d="M0 0 C1 3 1 3 0.22265625 4.82421875 C-0.8515625 6.54947917 -1.92578125 8.27473958 -3 10 C-3.66 10 -4.32 10 -5 10 C-3.66511872 6.40608886 -2.03977277 3.24509304 0 0 Z " fill="#E21A13" transform="translate(789,168)"/>
<path d="M0 0 C0.66 0 1.32 0 2 0 C5.22265625 5.2734375 5.22265625 5.2734375 6 7 C5.67 7.66 5.34 8.32 5 9 C1.9083091 6.47043472 1.09068668 3.77545388 0 0 Z " fill="#DF1812" transform="translate(257,214)"/>
<path d="M0 0 C0.33 0.66 0.66 1.32 1 2 C0.22265625 3.7265625 0.22265625 3.7265625 -0.9375 5.625 C-1.618125 6.73875 -2.29875 7.8525 -3 9 C-3.89674777 6.48910624 -4.13172674 5.35464891 -3.1875 2.8125 C-2 1 -2 1 0 0 Z " fill="#E11A12" transform="translate(610,286)"/>
<path d="M0 0 C0.66 0 1.32 0 2 0 C0.90931332 3.77545388 0.0916909 6.47043472 -3 9 C-2.44271087 5.65626525 -1.64826111 2.96687001 0 0 Z " fill="#E11B12" transform="translate(637,235)"/>
<path d="M0 0 C0.66 0 1.32 0 2 0 C1.40072174 3.35595828 0.15377564 5.37801226 -2 8 C-2 4.23312136 -1.76462683 3.08809695 0 0 Z " fill="#E01E16" transform="translate(534,421)"/>
<path d="M0 0 C2.79872437 2.52788007 4.45773019 4.20411134 5 8 C2 7 2 7 0.8125 5.125 C0 3 0 3 0 0 Z " fill="#DE1A12" transform="translate(278,250)"/>
<path d="M0 0 C1.32 0 2.64 0 4 0 C4.33 0.99 4.66 1.98 5 3 C3.35 3 1.7 3 0 3 C0 2.01 0 1.02 0 0 Z " fill="#E14336" transform="translate(264,236)"/>
<path d="M0 0 C0.33 1.32 0.66 2.64 1 4 C0.34 4 -0.32 4 -1 4 C-0.67 2.68 -0.34 1.36 0 0 Z " fill="#E34234" transform="translate(361,399)"/>
<path d="M0 0 C0.66 0.99 1.32 1.98 2 3 C1.01 3 0.02 3 -1 3 C-0.67 2.01 -0.34 1.02 0 0 Z " fill="#E33F33" transform="translate(354,387)"/>
<path d="M0 0 C1.65 0 3.3 0 5 0 C5 0.33 5 0.66 5 1 C3.35 1 1.7 1 0 1 C0 0.67 0 0.34 0 0 Z " fill="#E54D3F" transform="translate(540,879)"/>
<path d="M0 0 C0.66 1.32 1.32 2.64 2 4 C1.34 4 0.68 4 0 4 C0 2.68 0 1.36 0 0 Z " fill="#E74134" transform="translate(566,647)"/>
<path d="M0 0 C0.99 1.485 0.99 1.485 2 3 C1.01 3.495 1.01 3.495 0 4 C0 2.68 0 1.36 0 0 Z " fill="#E34739" transform="translate(616,266)"/>
<path d="M0 0 C4 1 4 1 4 1 Z " fill="#E44C3F" transform="translate(518,879)"/>
<path d="M0 0 C4 1 4 1 4 1 Z " fill="#E64C3E" transform="translate(500,879)"/>
<path d="M0 0 C4 1 4 1 4 1 Z " fill="#E93F32" transform="translate(567,749)"/>
<path d="M0 0 C0.66 0 1.32 0 2 0 C2 0.66 2 1.32 2 2 C1.34 2 0.68 2 0 2 C0 1.34 0 0.68 0 0 Z " fill="#E83F32" transform="translate(566,587)"/>
<path d="M0 0 C0 3 0 3 0 3 Z " fill="#E54335" transform="translate(547,392)"/>
<path d="M0 0 C0 3 0 3 0 3 Z " fill="#E44637" transform="translate(619,264)"/>
<path d="M0 0 C3 1 3 1 3 1 Z " fill="#E44B3D" transform="translate(523,879)"/>
<path d="M0 0 C3 1 3 1 3 1 Z " fill="#E35244" transform="translate(471,879)"/>
<path d="M0 0 C0.99 0.495 0.99 0.495 2 1 C1.01 1.495 1.01 1.495 0 2 C0 1.34 0 0.68 0 0 Z " fill="#EA3E32" transform="translate(572,749)"/>
<path d="M0 0 C0.66 0 1.32 0 2 0 C1.67 0.66 1.34 1.32 1 2 C0.67 1.34 0.34 0.68 0 0 Z " fill="#E74737" transform="translate(681,749)"/>
<path d="" fill="#E84032" transform="translate(0,0)"/>
<path d="" fill="#E44134" transform="translate(0,0)"/>
<path d="M0 0 C0.66 0.66 1.32 1.32 2 2 C1.34 2 0.68 2 0 2 C0 1.34 0 0.68 0 0 Z " fill="#E34435" transform="translate(536,411)"/>
<path d="M0 0 C0.33 0.66 0.66 1.32 1 2 C0.34 1.67 -0.32 1.34 -1 1 C-0.67 0.67 -0.34 0.34 0 0 Z " fill="#E34336" transform="translate(569,354)"/>
<path d="" fill="#E34335" transform="translate(0,0)"/>
<path d="M0 0 C0.66 0.66 1.32 1.32 2 2 C1.34 2 0.68 2 0 2 C0 1.34 0 0.68 0 0 Z " fill="#E34337" transform="translate(585,320)"/>
<path d="" fill="#E24033" transform="translate(0,0)"/>
<path d="" fill="#E34638" transform="translate(0,0)"/>
<path d="M0 0 C0.33 0.66 0.66 1.32 1 2 C0.34 1.67 -0.32 1.34 -1 1 C-0.67 0.67 -0.34 0.34 0 0 Z " fill="#E24134" transform="translate(398,250)"/>
<path d="" fill="#E34536" transform="translate(0,0)"/>
<path d="M0 0 C0.33 0.66 0.66 1.32 1 2 C0.34 1.67 -0.32 1.34 -1 1 C-0.67 0.67 -0.34 0.34 0 0 Z " fill="#E04436" transform="translate(265,233)"/>
<path d="" fill="#E04436" transform="translate(0,0)"/>
<path d="M0 0 C0.66 0.66 1.32 1.32 2 2 C1.34 2 0.68 2 0 2 C0 1.34 0 0.68 0 0 Z " fill="#E6493B" transform="translate(772,206)"/>
<path d="M0 0 C0.66 0 1.32 0 2 0 C1.67 0.66 1.34 1.32 1 2 C0.67 1.34 0.34 0.68 0 0 Z " fill="#E14E3F" transform="translate(234,179)"/>
<path d="M0 0 C0.99 0.495 0.99 0.495 2 1 C1.01 1.495 1.01 1.495 0 2 C0 1.34 0 0.68 0 0 Z " fill="#E25043" transform="translate(232,177)"/>
<path d="M0 0 C2 1 2 1 2 1 Z " fill="#E34F40" transform="translate(548,879)"/>
<path d="M0 0 C2 1 2 1 2 1 Z " fill="#E54D40" transform="translate(496,879)"/>
<path d="M0 0 C2 1 2 1 2 1 Z " fill="#E35344" transform="translate(468,879)"/>
<path d="" fill="#E5493B" transform="translate(0,0)"/>
<path d="" fill="#E94436" transform="translate(0,0)"/>
<path d="" fill="#E94336" transform="translate(0,0)"/>
<path d="M0 0 C2 1 2 1 2 1 Z " fill="#E45142" transform="translate(745,749)"/>
<path d="M0 0 C2 1 2 1 2 1 Z " fill="#EA4338" transform="translate(609,749)"/>
<path d="M0 0 C2 1 2 1 2 1 Z " fill="#E94336" transform="translate(425,749)"/>
<path d="M0 0 C2 1 2 1 2 1 Z " fill="#E44A3C" transform="translate(304,749)"/>
<path d="" fill="#E2493C" transform="translate(0,0)"/>
<path d="" fill="#E24739" transform="translate(0,0)"/>
<path d="" fill="#E83D31" transform="translate(0,0)"/>
<path d="" fill="#E83D31" transform="translate(0,0)"/>
<path d="" fill="#E24639" transform="translate(0,0)"/>
<path d="M0 0 C2 1 2 1 2 1 Z " fill="#E84435" transform="translate(620,479)"/>
<path d="" fill="#E54134" transform="translate(0,0)"/>
<path d="" fill="#E74535" transform="translate(0,0)"/>
<path d="" fill="#E44235" transform="translate(0,0)"/>
<path d="" fill="#E44234" transform="translate(0,0)"/>
<path d="" fill="#E64234" transform="translate(0,0)"/>
<path d="" fill="#E34335" transform="translate(0,0)"/>
<path d="M0 0 C2 1 2 1 2 1 Z " fill="#E64335" transform="translate(528,427)"/>
<path d="" fill="#E24436" transform="translate(0,0)"/>
<path d="" fill="#E54135" transform="translate(0,0)"/>
<path d="M0 0 C2 1 2 1 2 1 Z " fill="#E54234" transform="translate(368,414)"/>
<path d="" fill="#E14132" transform="translate(0,0)"/>
<path d="" fill="#E74334" transform="translate(0,0)"/>
<path d="M0 0 C2 1 2 1 2 1 Z " fill="#E74535" transform="translate(660,407)"/>
<path d="" fill="#E44435" transform="translate(0,0)"/>
<path d="" fill="#E54034" transform="translate(0,0)"/>
<path d="M0 0 C2 1 2 1 2 1 Z " fill="#E24336" transform="translate(678,371)"/>
<path d="" fill="#E64537" transform="translate(0,0)"/>
<path d="" fill="#E34336" transform="translate(0,0)"/>
<path d="" fill="#E04236" transform="translate(0,0)"/>
<path d="" fill="#E24538" transform="translate(0,0)"/>
<path d="" fill="#E44436" transform="translate(0,0)"/>
<path d="" fill="#E44336" transform="translate(0,0)"/>
<path d="" fill="#E14233" transform="translate(0,0)"/>
<path d="" fill="#E63F35" transform="translate(0,0)"/>
<path d="" fill="#E24135" transform="translate(0,0)"/>
<path d="" fill="#E24334" transform="translate(0,0)"/>
<path d="M0 0 C2 1 2 1 2 1 Z " fill="#E24134" transform="translate(296,289)"/>
<path d="" fill="#E34738" transform="translate(0,0)"/>
<path d="M0 0 C2 1 2 1 2 1 Z " fill="#E14335" transform="translate(288,275)"/>
<path d="" fill="#E24437" transform="translate(0,0)"/>
<path d="M0 0 C2 1 2 1 2 1 Z " fill="#E24234" transform="translate(395,248)"/>
<path d="" fill="#E24538" transform="translate(0,0)"/>
<path d="" fill="#E14033" transform="translate(0,0)"/>
<path d="" fill="#E34637" transform="translate(0,0)"/>
<path d="" fill="#E24B3C" transform="translate(0,0)"/>
<path d="" fill="#E34437" transform="translate(0,0)"/>
<path d="" fill="#D1C6BE" transform="translate(0,0)"/>
<path d="" fill="#E44D3E" transform="translate(0,0)"/>
<path d="" fill="#E54E40" transform="translate(0,0)"/>
<path d="" fill="#E64C40" transform="translate(0,0)"/>
<path d="" fill="#E34E41" transform="translate(0,0)"/>
<path d="" fill="#E45141" transform="translate(0,0)"/>
<path d="" fill="#E54E40" transform="translate(0,0)"/>
<path d="" fill="#E65042" transform="translate(0,0)"/>
<path d="" fill="#E14F42" transform="translate(0,0)"/>
<path d="" fill="#E15949" transform="translate(0,0)"/>
<path d="" fill="#E25F4F" transform="translate(0,0)"/>
<path d="" fill="#E54134" transform="translate(0,0)"/>
<path d="" fill="#EA3F34" transform="translate(0,0)"/>
<path d="" fill="#E74133" transform="translate(0,0)"/>
<path d="" fill="#E45043" transform="translate(0,0)"/>
<path d="" fill="#E94537" transform="translate(0,0)"/>
<path d="" fill="#E94337" transform="translate(0,0)"/>
<path d="" fill="#E94033" transform="translate(0,0)"/>
<path d="" fill="#E94134" transform="translate(0,0)"/>
<path d="" fill="#E84336" transform="translate(0,0)"/>
<path d="" fill="#E94637" transform="translate(0,0)"/>
<path d="" fill="#E84537" transform="translate(0,0)"/>
<path d="" fill="#E7483C" transform="translate(0,0)"/>
<path d="" fill="#E54D3E" transform="translate(0,0)"/>
<path d="" fill="#E64A3B" transform="translate(0,0)"/>
<path d="" fill="#E84A3B" transform="translate(0,0)"/>
<path d="" fill="#E84639" transform="translate(0,0)"/>
<path d="" fill="#E84837" transform="translate(0,0)"/>
<path d="" fill="#E64838" transform="translate(0,0)"/>
<path d="" fill="#E74739" transform="translate(0,0)"/>
<path d="" fill="#E84738" transform="translate(0,0)"/>
<path d="" fill="#E84638" transform="translate(0,0)"/>
<path d="" fill="#E74738" transform="translate(0,0)"/>
<path d="" fill="#E94738" transform="translate(0,0)"/>
<path d="" fill="#EA4838" transform="translate(0,0)"/>
<path d="" fill="#EA4638" transform="translate(0,0)"/>
<path d="" fill="#E74538" transform="translate(0,0)"/>
<path d="" fill="#E84337" transform="translate(0,0)"/>
<path d="" fill="#E84436" transform="translate(0,0)"/>
<path d="" fill="#E94336" transform="translate(0,0)"/>
<path d="" fill="#E84234" transform="translate(0,0)"/>
<path d="" fill="#EB4033" transform="translate(0,0)"/>
<path d="" fill="#E94235" transform="translate(0,0)"/>
<path d="" fill="#EA4535" transform="translate(0,0)"/>
<path d="" fill="#E84536" transform="translate(0,0)"/>
<path d="" fill="#E64537" transform="translate(0,0)"/>
<path d="" fill="#E74737" transform="translate(0,0)"/>
<path d="" fill="#E94538" transform="translate(0,0)"/>
<path d="" fill="#E74838" transform="translate(0,0)"/>
<path d="" fill="#E74738" transform="translate(0,0)"/>
<path d="" fill="#E74839" transform="translate(0,0)"/>
<path d="" fill="#E54638" transform="translate(0,0)"/>
<path d="" fill="#E6473A" transform="translate(0,0)"/>
<path d="" fill="#E6473A" transform="translate(0,0)"/>
<path d="" fill="#DE5C4F" transform="translate(0,0)"/>
<path d="" fill="#DF5F4F" transform="translate(0,0)"/>
<path d="" fill="#DF5547" transform="translate(0,0)"/>
<path d="" fill="#DF4D41" transform="translate(0,0)"/>
<path d="" fill="#E14A3D" transform="translate(0,0)"/>
<path d="" fill="#E2493D" transform="translate(0,0)"/>
<path d="" fill="#E0473A" transform="translate(0,0)"/>
<path d="" fill="#E2493C" transform="translate(0,0)"/>
<path d="" fill="#E3483B" transform="translate(0,0)"/>
<path d="" fill="#E24A3E" transform="translate(0,0)"/>
<path d="" fill="#E34B3E" transform="translate(0,0)"/>
<path d="" fill="#E24D3E" transform="translate(0,0)"/>
<path d="" fill="#E34E41" transform="translate(0,0)"/>
<path d="" fill="#E05245" transform="translate(0,0)"/>
<path d="" fill="#E05244" transform="translate(0,0)"/>
<path d="" fill="#E74134" transform="translate(0,0)"/>
<path d="" fill="#E74335" transform="translate(0,0)"/>
<path d="" fill="#E93F33" transform="translate(0,0)"/>
<path d="" fill="#E43D31" transform="translate(0,0)"/>
<path d="" fill="#E93F32" transform="translate(0,0)"/>
<path d="" fill="#E83E32" transform="translate(0,0)"/>
<path d="" fill="#E73D31" transform="translate(0,0)"/>
<path d="" fill="#E74034" transform="translate(0,0)"/>
<path d="" fill="#E64034" transform="translate(0,0)"/>
<path d="" fill="#E63D31" transform="translate(0,0)"/>
<path d="" fill="#E63D31" transform="translate(0,0)"/>
<path d="" fill="#E83E31" transform="translate(0,0)"/>
<path d="" fill="#E74232" transform="translate(0,0)"/>
<path d="" fill="#E05448" transform="translate(0,0)"/>
<path d="" fill="#DF5549" transform="translate(0,0)"/>
<path d="" fill="#E05849" transform="translate(0,0)"/>
<path d="" fill="#E1594B" transform="translate(0,0)"/>
<path d="" fill="#E15647" transform="translate(0,0)"/>
<path d="" fill="#E24F41" transform="translate(0,0)"/>
<path d="" fill="#E5493D" transform="translate(0,0)"/>
<path d="" fill="#E2493C" transform="translate(0,0)"/>
<path d="" fill="#E3483A" transform="translate(0,0)"/>
<path d="" fill="#E24739" transform="translate(0,0)"/>
<path d="" fill="#E24438" transform="translate(0,0)"/>
<path d="" fill="#E2483B" transform="translate(0,0)"/>
<path d="" fill="#E14839" transform="translate(0,0)"/>
<path d="" fill="#E3483B" transform="translate(0,0)"/>
<path d="" fill="#E2463A" transform="translate(0,0)"/>
<path d="" fill="#E14839" transform="translate(0,0)"/>
<path d="" fill="#E04639" transform="translate(0,0)"/>
<path d="" fill="#E2473A" transform="translate(0,0)"/>
<path d="" fill="#E2473A" transform="translate(0,0)"/>
<path d="" fill="#E2483C" transform="translate(0,0)"/>
<path d="" fill="#E3493D" transform="translate(0,0)"/>
<path d="" fill="#E34B3C" transform="translate(0,0)"/>
<path d="" fill="#E24D3E" transform="translate(0,0)"/>
<path d="" fill="#E25143" transform="translate(0,0)"/>
<path d="" fill="#E15649" transform="translate(0,0)"/>
<path d="" fill="#DE5849" transform="translate(0,0)"/>
<path d="" fill="#DF5547" transform="translate(0,0)"/>
<path d="" fill="#E54F40" transform="translate(0,0)"/>
<path d="" fill="#E94839" transform="translate(0,0)"/>
<path d="" fill="#E84535" transform="translate(0,0)"/>
<path d="" fill="#E93F31" transform="translate(0,0)"/>
<path d="" fill="#E44335" transform="translate(0,0)"/>
<path d="" fill="#E94236" transform="translate(0,0)"/>
<path d="" fill="#E83F32" transform="translate(0,0)"/>
<path d="" fill="#E84535" transform="translate(0,0)"/>
<path d="" fill="#E94235" transform="translate(0,0)"/>
<path d="" fill="#E84134" transform="translate(0,0)"/>
<path d="" fill="#E74233" transform="translate(0,0)"/>
<path d="" fill="#E34835" transform="translate(0,0)"/>
<path d="" fill="#E34337" transform="translate(0,0)"/>
<path d="" fill="#E34535" transform="translate(0,0)"/>
<path d="" fill="#E54333" transform="translate(0,0)"/>
<path d="" fill="#E73F34" transform="translate(0,0)"/>
<path d="" fill="#E54034" transform="translate(0,0)"/>
<path d="" fill="#E74134" transform="translate(0,0)"/>
<path d="" fill="#E73E31" transform="translate(0,0)"/>
<path d="" fill="#E64033" transform="translate(0,0)"/>
<path d="" fill="#E54234" transform="translate(0,0)"/>
<path d="" fill="#E74133" transform="translate(0,0)"/>
<path d="" fill="#E74333" transform="translate(0,0)"/>
<path d="" fill="#E34135" transform="translate(0,0)"/>
<path d="" fill="#E54034" transform="translate(0,0)"/>
<path d="" fill="#E54134" transform="translate(0,0)"/>
<path d="" fill="#E64333" transform="translate(0,0)"/>
<path d="" fill="#E53E32" transform="translate(0,0)"/>
<path d="" fill="#E43F32" transform="translate(0,0)"/>
<path d="" fill="#E64135" transform="translate(0,0)"/>
<path d="" fill="#E64031" transform="translate(0,0)"/>
<path d="" fill="#E54336" transform="translate(0,0)"/>
<path d="" fill="#E74333" transform="translate(0,0)"/>
<path d="" fill="#E84537" transform="translate(0,0)"/>
<path d="" fill="#E64134" transform="translate(0,0)"/>
<path d="" fill="#E64235" transform="translate(0,0)"/>
<path d="" fill="#E64334" transform="translate(0,0)"/>
<path d="" fill="#E54336" transform="translate(0,0)"/>
<path d="" fill="#E64236" transform="translate(0,0)"/>
<path d="" fill="#E44334" transform="translate(0,0)"/>
<path d="" fill="#E34437" transform="translate(0,0)"/>
<path d="" fill="#E64234" transform="translate(0,0)"/>
<path d="" fill="#E74336" transform="translate(0,0)"/>
<path d="" fill="#E64436" transform="translate(0,0)"/>
<path d="" fill="#E44537" transform="translate(0,0)"/>
<path d="" fill="#E44233" transform="translate(0,0)"/>
<path d="" fill="#E74637" transform="translate(0,0)"/>
<path d="" fill="#E44032" transform="translate(0,0)"/>
<path d="" fill="#E54034" transform="translate(0,0)"/>
<path d="" fill="#E74336" transform="translate(0,0)"/>
<path d="" fill="#E54333" transform="translate(0,0)"/>
<path d="" fill="#E54235" transform="translate(0,0)"/>
<path d="" fill="#E44135" transform="translate(0,0)"/>
<path d="" fill="#E54436" transform="translate(0,0)"/>
<path d="" fill="#E54034" transform="translate(0,0)"/>
<path d="" fill="#E33F34" transform="translate(0,0)"/>
<path d="" fill="#E74537" transform="translate(0,0)"/>
<path d="" fill="#E44337" transform="translate(0,0)"/>
<path d="" fill="#E13C30" transform="translate(0,0)"/>
<path d="" fill="#E34537" transform="translate(0,0)"/>
<path d="" fill="#E44435" transform="translate(0,0)"/>
<path d="" fill="#E74638" transform="translate(0,0)"/>
<path d="" fill="#E94638" transform="translate(0,0)"/>
<path d="" fill="#E54235" transform="translate(0,0)"/>
<path d="" fill="#E44334" transform="translate(0,0)"/>
<path d="" fill="#D29688" transform="translate(0,0)"/>
<path d="" fill="#E24235" transform="translate(0,0)"/>
<path d="" fill="#E53F33" transform="translate(0,0)"/>
<path d="" fill="#E64337" transform="translate(0,0)"/>
<path d="" fill="#E54435" transform="translate(0,0)"/>
<path d="" fill="#E84537" transform="translate(0,0)"/>
<path d="" fill="#E34336" transform="translate(0,0)"/>
<path d="" fill="#E74235" transform="translate(0,0)"/>
<path d="" fill="#E54336" transform="translate(0,0)"/>
<path d="" fill="#E44536" transform="translate(0,0)"/>
<path d="" fill="#E04034" transform="translate(0,0)"/>
<path d="" fill="#E34235" transform="translate(0,0)"/>
<path d="" fill="#E23F32" transform="translate(0,0)"/>
<path d="" fill="#E64636" transform="translate(0,0)"/>
<path d="" fill="#E24036" transform="translate(0,0)"/>
<path d="" fill="#E54234" transform="translate(0,0)"/>
<path d="" fill="#E34338" transform="translate(0,0)"/>
<path d="" fill="#E54535" transform="translate(0,0)"/>
<path d="" fill="#E34236" transform="translate(0,0)"/>
<path d="" fill="#D76556" transform="translate(0,0)"/>
<path d="" fill="#E24436" transform="translate(0,0)"/>
<path d="" fill="#E84238" transform="translate(0,0)"/>
<path d="" fill="#E64435" transform="translate(0,0)"/>
<path d="" fill="#E24036" transform="translate(0,0)"/>
<path d="" fill="#E44538" transform="translate(0,0)"/>
<path d="" fill="#E44337" transform="translate(0,0)"/>
<path d="" fill="#E44538" transform="translate(0,0)"/>
<path d="" fill="#E34333" transform="translate(0,0)"/>
<path d="" fill="#E54637" transform="translate(0,0)"/>
<path d="" fill="#DF4233" transform="translate(0,0)"/>
<path d="" fill="#E44438" transform="translate(0,0)"/>
<path d="" fill="#E24135" transform="translate(0,0)"/>
<path d="" fill="#E14033" transform="translate(0,0)"/>
<path d="" fill="#E03F32" transform="translate(0,0)"/>
<path d="" fill="#E24535" transform="translate(0,0)"/>
<path d="" fill="#E54436" transform="translate(0,0)"/>
<path d="" fill="#E74837" transform="translate(0,0)"/>
<path d="" fill="#E14033" transform="translate(0,0)"/>
<path d="" fill="#E44035" transform="translate(0,0)"/>
<path d="" fill="#E34437" transform="translate(0,0)"/>
<path d="" fill="#E44235" transform="translate(0,0)"/>
<path d="" fill="#E54538" transform="translate(0,0)"/>
<path d="" fill="#E54539" transform="translate(0,0)"/>
<path d="" fill="#E44335" transform="translate(0,0)"/>
<path d="" fill="#E44235" transform="translate(0,0)"/>
<path d="" fill="#E44133" transform="translate(0,0)"/>
<path d="" fill="#E44739" transform="translate(0,0)"/>
<path d="" fill="#E54133" transform="translate(0,0)"/>
<path d="" fill="#E23F36" transform="translate(0,0)"/>
<path d="" fill="#E44036" transform="translate(0,0)"/>
<path d="" fill="#E24034" transform="translate(0,0)"/>
<path d="" fill="#E54639" transform="translate(0,0)"/>
<path d="" fill="#E54235" transform="translate(0,0)"/>
<path d="" fill="#E14236" transform="translate(0,0)"/>
<path d="" fill="#E04237" transform="translate(0,0)"/>
<path d="" fill="#E54537" transform="translate(0,0)"/>
<path d="" fill="#E24436" transform="translate(0,0)"/>
<path d="" fill="#E44939" transform="translate(0,0)"/>
<path d="" fill="#E6483B" transform="translate(0,0)"/>
<path d="" fill="#E34337" transform="translate(0,0)"/>
<path d="" fill="#E24436" transform="translate(0,0)"/>
<path d="" fill="#E04335" transform="translate(0,0)"/>
<path d="" fill="#E14537" transform="translate(0,0)"/>
<path d="" fill="#E24233" transform="translate(0,0)"/>
<path d="" fill="#E44538" transform="translate(0,0)"/>
<path d="" fill="#E24636" transform="translate(0,0)"/>
<path d="" fill="#E34739" transform="translate(0,0)"/>
<path d="" fill="#E34438" transform="translate(0,0)"/>
<path d="" fill="#E34437" transform="translate(0,0)"/>
<path d="" fill="#E34335" transform="translate(0,0)"/>
<path d="" fill="#E44939" transform="translate(0,0)"/>
<path d="" fill="#E54437" transform="translate(0,0)"/>
<path d="" fill="#E24133" transform="translate(0,0)"/>
<path d="" fill="#E44237" transform="translate(0,0)"/>
<path d="" fill="#E24033" transform="translate(0,0)"/>
<path d="" fill="#E6443A" transform="translate(0,0)"/>
<path d="" fill="#E44639" transform="translate(0,0)"/>
<path d="" fill="#DE4337" transform="translate(0,0)"/>
<path d="" fill="#E34538" transform="translate(0,0)"/>
<path d="" fill="#E44235" transform="translate(0,0)"/>
<path d="" fill="#E54134" transform="translate(0,0)"/>
<path d="" fill="#E64438" transform="translate(0,0)"/>
<path d="" fill="#E2483A" transform="translate(0,0)"/>
<path d="" fill="#E64939" transform="translate(0,0)"/>
<path d="" fill="#E24B3B" transform="translate(0,0)"/>
<path d="" fill="#E24A3D" transform="translate(0,0)"/>
<path d="" fill="#E44434" transform="translate(0,0)"/>
<path d="" fill="#E34738" transform="translate(0,0)"/>
<path d="" fill="#E54A3C" transform="translate(0,0)"/>
<path d="" fill="#E24939" transform="translate(0,0)"/>
<path d="" fill="#E34536" transform="translate(0,0)"/>
<path d="" fill="#E4483B" transform="translate(0,0)"/>
<path d="" fill="#E34535" transform="translate(0,0)"/>
<path d="" fill="#E44839" transform="translate(0,0)"/>
<path d="" fill="#E24A3D" transform="translate(0,0)"/>
<path d="" fill="#E4493B" transform="translate(0,0)"/>
<path d="" fill="#E34A3B" transform="translate(0,0)"/>
<path d="" fill="#E2483D" transform="translate(0,0)"/>
<path d="" fill="#E4493A" transform="translate(0,0)"/>
<path d="" fill="#E14537" transform="translate(0,0)"/>
<path d="" fill="#E34D3F" transform="translate(0,0)"/>
<path d="" fill="#E74A38" transform="translate(0,0)"/>
<path d="" fill="#E64B3C" transform="translate(0,0)"/>
<path d="" fill="#E6493D" transform="translate(0,0)"/>
<path d="" fill="#E44A3B" transform="translate(0,0)"/>
<path d="" fill="#E45547" transform="translate(0,0)"/>
<path d="" fill="#E25548" transform="translate(0,0)"/>
<path d="" fill="#E34B3E" transform="translate(0,0)"/>
<path d="" fill="#E54E3E" transform="translate(0,0)"/>
<path d="" fill="#E45043" transform="translate(0,0)"/>
<path d="" fill="#E74B3E" transform="translate(0,0)"/>
<path d="" fill="#E65545" transform="translate(0,0)"/>
<path d="" fill="#E45546" transform="translate(0,0)"/>
</svg>
